<svg xmlns="http://www.w3.org/2000/svg" xmlns:xlink="http://www.w3.org/1999/xlink" width="500" zoomAndPan="magnify" viewBox="0 0 375 374.999991" height="500" preserveAspectRatio="xMidYMid meet" version="1.0"><defs><clipPath id="c229a52e79"><path d="M 123.488281 181.5 L 161.738281 181.5 L 161.738281 219.75 L 123.488281 219.75 Z M 123.488281 181.5 " clip-rule="nonzero"/></clipPath><clipPath id="86c39d1ab0"><path d="M 220.109375 177.4375 L 244.859375 177.4375 L 244.859375 217 L 220.109375 217 Z M 220.109375 177.4375 " clip-rule="nonzero"/></clipPath><clipPath id="6afa018f10"><path d="M 195 70 L 217 70 L 217 104 L 195 104 Z M 195 70 " clip-rule="nonzero"/></clipPath><clipPath id="588a7d47cd"><path d="M 198.566406 68.644531 L 218.621094 71.453125 L 214.148438 103.390625 L 194.09375 100.582031 Z M 198.566406 68.644531 " clip-rule="nonzero"/></clipPath><clipPath id="1c5b67d83b"><path d="M 198.566406 68.644531 L 218.621094 71.453125 L 214.148438 103.390625 L 194.09375 100.582031 Z M 198.566406 68.644531 " clip-rule="nonzero"/></clipPath><clipPath id="ec4d5f10ef"><path d="M 217 279 L 232 279 L 232 299 L 217 299 Z M 217 279 " clip-rule="nonzero"/></clipPath><clipPath id="79e8cd94a2"><path d="M 214.75 281.753906 L 225.15625 277.480469 L 232.28125 294.824219 L 221.875 299.097656 Z M 214.75 281.753906 " clip-rule="nonzero"/></clipPath><clipPath id="48fc78a4a0"><path d="M 214.75 281.753906 L 225.15625 277.480469 L 232.28125 294.824219 L 221.875 299.097656 Z M 214.75 281.753906 " clip-rule="nonzero"/></clipPath><clipPath id="8d417633d6"><path d="M 286.066406 191.402344 L 304.816406 191.402344 L 304.816406 210.152344 L 286.066406 210.152344 Z M 286.066406 191.402344 " clip-rule="nonzero"/></clipPath><clipPath id="2926e615ec"><path d="M 75.222656 189.496094 L 86.472656 189.496094 L 86.472656 208 L 75.222656 208 Z M 75.222656 189.496094 " clip-rule="nonzero"/></clipPath><clipPath id="d7a99ef6a8"><path d="M 146 165 L 186.691406 165 L 186.691406 168 L 146 168 Z M 146 165 " clip-rule="nonzero"/></clipPath><clipPath id="3a4994b486"><path d="M 144.691406 162 L 186 162 L 186 165 L 144.691406 165 Z M 144.691406 162 " clip-rule="nonzero"/></clipPath><clipPath id="9c82b78fd6"><path d="M 145 159 L 186.691406 159 L 186.691406 162 L 145 162 Z M 145 159 " clip-rule="nonzero"/></clipPath><clipPath id="b03224012c"><path d="M 144.691406 156 L 186 156 L 186 159 L 144.691406 159 Z M 144.691406 156 " clip-rule="nonzero"/></clipPath><clipPath id="8ac296e0c4"><path d="M 145 153 L 186.691406 153 L 186.691406 157 L 145 157 Z M 145 153 " clip-rule="nonzero"/></clipPath><clipPath id="73c6cec795"><path d="M 159 179 L 171 179 L 171 181.242188 L 159 181.242188 Z M 159 179 " clip-rule="nonzero"/></clipPath><clipPath id="824a4e3bcc"><path d="M 160 136.992188 L 173 136.992188 L 173 140 L 160 140 Z M 160 136.992188 " clip-rule="nonzero"/></clipPath><clipPath id="3242b24997"><path d="M 193 164 L 233.867188 164 L 233.867188 168 L 193 168 Z M 193 164 " clip-rule="nonzero"/></clipPath><clipPath id="32148e2e11"><path d="M 191.867188 162 L 233 162 L 233 165 L 191.867188 165 Z M 191.867188 162 " clip-rule="nonzero"/></clipPath><clipPath id="ab9b3d48d6"><path d="M 192 159 L 233.867188 159 L 233.867188 162 L 192 162 Z M 192 159 " clip-rule="nonzero"/></clipPath><clipPath id="24b5a9effa"><path d="M 191.867188 156 L 233 156 L 233 159 L 191.867188 159 Z M 191.867188 156 " clip-rule="nonzero"/></clipPath><clipPath id="0927603a66"><path d="M 193 153 L 233.867188 153 L 233.867188 156 L 193 156 Z M 193 153 " clip-rule="nonzero"/></clipPath><clipPath id="67f8e5ebaa"><path d="M 206 178 L 219 178 L 219 180.964844 L 206 180.964844 Z M 206 178 " clip-rule="nonzero"/></clipPath><clipPath id="c8b46e66d9"><path d="M 207 136.714844 L 220 136.714844 L 220 139 L 207 139 Z M 207 136.714844 " clip-rule="nonzero"/></clipPath><clipPath id="d99f252d1d"><path d="M 193 147 L 233.867188 147 L 233.867188 151 L 193 151 Z M 193 147 " clip-rule="nonzero"/></clipPath><clipPath id="3a025f3dfd"><path d="M 167.21875 200 L 209 200 L 209 203 L 167.21875 203 Z M 167.21875 200 " clip-rule="nonzero"/></clipPath><clipPath id="94a500765a"><path d="M 168 197 L 209.21875 197 L 209.21875 200 L 168 200 Z M 168 197 " clip-rule="nonzero"/></clipPath><clipPath id="066dd480c0"><path d="M 167.21875 194 L 209 194 L 209 197 L 167.21875 197 Z M 167.21875 194 " clip-rule="nonzero"/></clipPath><clipPath id="b71d07f9de"><path d="M 167.21875 205 L 208 205 L 208 209 L 167.21875 209 Z M 167.21875 205 " clip-rule="nonzero"/></clipPath><clipPath id="7d19514de3"><path d="M 167.21875 189 L 208 189 L 208 192 L 167.21875 192 Z M 167.21875 189 " clip-rule="nonzero"/></clipPath><clipPath id="00c353e80d"><path d="M 168 191 L 209.21875 191 L 209.21875 195 L 168 195 Z M 168 191 " clip-rule="nonzero"/></clipPath><clipPath id="02918ae856"><path d="M 181 217 L 194 217 L 194 219.242188 L 181 219.242188 Z M 181 217 " clip-rule="nonzero"/></clipPath><clipPath id="99e9146fc1"><path d="M 183 174.992188 L 195 174.992188 L 195 178 L 183 178 Z M 183 174.992188 " clip-rule="nonzero"/></clipPath><clipPath id="c97b0fbdae"><path d="M 146 242 L 186.691406 242 L 186.691406 245 L 146 245 Z M 146 242 " clip-rule="nonzero"/></clipPath><clipPath id="ae83697038"><path d="M 144.691406 239 L 186 239 L 186 242 L 144.691406 242 Z M 144.691406 239 " clip-rule="nonzero"/></clipPath><clipPath id="7663d1aeda"><path d="M 145 236 L 186.691406 236 L 186.691406 239 L 145 239 Z M 145 236 " clip-rule="nonzero"/></clipPath><clipPath id="57efb6d795"><path d="M 144.691406 233 L 186 233 L 186 236 L 144.691406 236 Z M 144.691406 233 " clip-rule="nonzero"/></clipPath><clipPath id="230c376c1e"><path d="M 145 230 L 186.691406 230 L 186.691406 233 L 145 233 Z M 145 230 " clip-rule="nonzero"/></clipPath><clipPath id="8cf6c509cc"><path d="M 159 256 L 171 256 L 171 258.113281 L 159 258.113281 Z M 159 256 " clip-rule="nonzero"/></clipPath><clipPath id="d33a31e9b1"><path d="M 160 213.863281 L 173 213.863281 L 173 217 L 160 217 Z M 160 213.863281 " clip-rule="nonzero"/></clipPath><clipPath id="9e5e00886c"><path d="M 191.117188 239 L 232 239 L 232 242 L 191.117188 242 Z M 191.117188 239 " clip-rule="nonzero"/></clipPath><clipPath id="eb3f351b1a"><path d="M 192 236 L 233.117188 236 L 233.117188 239 L 192 239 Z M 192 236 " clip-rule="nonzero"/></clipPath><clipPath id="80fe60c038"><path d="M 191.117188 233 L 233 233 L 233 236 L 191.117188 236 Z M 191.117188 233 " clip-rule="nonzero"/></clipPath><clipPath id="568d1740f3"><path d="M 191.117188 244 L 232 244 L 232 248 L 191.117188 248 Z M 191.117188 244 " clip-rule="nonzero"/></clipPath><clipPath id="e44f6d3ee3"><path d="M 191.117188 227 L 232 227 L 232 231 L 191.117188 231 Z M 191.117188 227 " clip-rule="nonzero"/></clipPath><clipPath id="ba3ca873ff"><path d="M 192 230 L 233.117188 230 L 233.117188 233 L 192 233 Z M 192 230 " clip-rule="nonzero"/></clipPath><clipPath id="22fe778911"><path d="M 205 256 L 218 256 L 218 258.113281 L 205 258.113281 Z M 205 256 " clip-rule="nonzero"/></clipPath><clipPath id="fe330e64d5"><path d="M 206 213.863281 L 219 213.863281 L 219 217 L 206 217 Z M 206 213.863281 " clip-rule="nonzero"/></clipPath></defs><g clip-path="url(#c229a52e79)"><path fill="#000" d="M 135.929688 207.898438 L 149.566406 207.898438 C 149.550781 207.964844 149.53125 208.027344 149.5 208.089844 C 149.363281 208.375 149.21875 208.648438 149.082031 208.921875 C 148.714844 209.644531 148.328125 210.394531 147.925781 211.128906 C 147.820312 211.261719 147.683594 211.328125 147.515625 211.339844 C 144.355469 211.355469 141.148438 211.355469 137.972656 211.339844 C 137.832031 211.339844 137.714844 211.289062 137.613281 211.191406 C 137.15625 210.324219 136.699219 209.425781 136.261719 208.558594 L 135.9375 207.933594 C 135.9375 207.925781 135.929688 207.90625 135.929688 207.898438 Z M 139.296875 214.835938 C 139.980469 215.707031 140.820312 216.378906 141.8125 216.859375 L 141.8125 219.058594 C 141.8125 219.320312 141.90625 219.539062 142.089844 219.722656 C 142.273438 219.90625 142.492188 220 142.753906 220 C 143.011719 220 143.234375 219.90625 143.417969 219.722656 C 143.601562 219.539062 143.695312 219.320312 143.695312 219.058594 L 143.695312 216.820312 L 143.710938 216.8125 C 144.078125 216.644531 144.421875 216.445312 144.746094 216.210938 C 145.71875 215.453125 146.519531 214.542969 147.148438 213.484375 L 138.320312 213.484375 C 138.609375 213.960938 138.933594 214.414062 139.296875 214.835938 Z M 135.019531 191.027344 L 134.960938 191.042969 C 134.988281 190.054688 135.1875 189.101562 135.558594 188.183594 L 135.570312 188.15625 C 135.65625 187.941406 135.757812 187.726562 135.875 187.507812 C 135.914062 187.433594 135.953125 187.351562 135.996094 187.277344 C 136.078125 187.136719 136.171875 187 136.265625 186.859375 C 136.332031 186.753906 136.398438 186.648438 136.472656 186.546875 C 136.488281 186.527344 136.5 186.507812 136.515625 186.488281 C 136.8125 186.101562 137.144531 185.746094 137.515625 185.425781 C 137.367188 185.105469 137.1875 184.804688 136.980469 184.519531 C 136.738281 184.222656 136.472656 183.957031 136.175781 183.71875 C 135.9375 183.539062 135.683594 183.382812 135.414062 183.25 C 135.195312 183.117188 135.050781 182.925781 134.984375 182.675781 C 134.921875 182.425781 134.953125 182.1875 135.078125 181.960938 C 135.207031 181.746094 135.394531 181.601562 135.636719 181.53125 C 135.890625 181.46875 136.132812 181.5 136.363281 181.625 C 137.007812 181.949219 137.574219 182.375 138.066406 182.902344 C 138.335938 183.191406 138.574219 183.5 138.789062 183.832031 C 138.898438 184.003906 138.996094 184.179688 139.085938 184.363281 C 139.832031 183.988281 140.617188 183.730469 141.4375 183.582031 C 141.523438 183.570312 141.605469 183.554688 141.691406 183.542969 C 141.996094 183.496094 142.304688 183.464844 142.617188 183.453125 L 142.621094 183.453125 C 142.914062 183.453125 143.207031 183.46875 143.496094 183.503906 C 143.636719 183.519531 143.777344 183.539062 143.921875 183.5625 C 144.152344 183.601562 144.402344 183.648438 144.671875 183.714844 L 144.804688 183.757812 C 145.367188 183.902344 145.910156 184.109375 146.429688 184.367188 C 146.515625 184.183594 146.617188 184.003906 146.730469 183.828125 C 146.941406 183.5 147.183594 183.191406 147.449219 182.90625 C 147.941406 182.375 148.507812 181.949219 149.148438 181.625 C 149.378906 181.5 149.621094 181.46875 149.875 181.53125 C 150.117188 181.601562 150.304688 181.742188 150.4375 181.960938 C 150.5625 182.1875 150.59375 182.425781 150.527344 182.675781 C 150.464844 182.925781 150.320312 183.117188 150.097656 183.25 C 149.832031 183.382812 149.578125 183.539062 149.339844 183.71875 C 149.042969 183.957031 148.773438 184.226562 148.535156 184.519531 C 148.328125 184.804688 148.152344 185.105469 148.003906 185.425781 C 148.347656 185.722656 148.65625 186.050781 148.9375 186.40625 C 148.957031 186.433594 148.980469 186.460938 149.003906 186.488281 C 149.023438 186.515625 149.035156 186.523438 149.046875 186.542969 C 150.027344 187.886719 150.53125 189.390625 150.554688 191.050781 C 150.332031 190.972656 150.121094 190.894531 149.90625 190.8125 C 149.800781 190.773438 149.6875 190.734375 149.582031 190.695312 C 149.421875 190.632812 149.265625 190.578125 149.105469 190.519531 C 148.730469 190.378906 148.351562 190.234375 147.976562 190.101562 C 147.199219 189.820312 146.40625 189.539062 145.605469 189.261719 C 144.804688 188.980469 143.996094 188.703125 143.191406 188.433594 C 143.066406 188.394531 142.9375 188.375 142.804688 188.378906 C 142.617188 188.382812 142.429688 188.410156 142.246094 188.46875 C 140.9375 188.921875 139.625 189.386719 138.328125 189.855469 L 137.03125 190.316406 L 136.335938 190.5625 L 135.066406 191.015625 Z M 147.996094 185.417969 L 148.011719 185.375 C 148.007812 185.390625 148 185.402344 147.996094 185.417969 Z M 137.519531 185.421875 C 137.511719 185.40625 137.503906 185.394531 137.496094 185.378906 Z M 160.636719 198.847656 C 159.914062 197.804688 158.980469 197.011719 157.832031 196.46875 C 155.132812 195.085938 152.355469 193.890625 149.496094 192.882812 C 148.316406 192.433594 147.152344 192.023438 145.917969 191.574219 C 145.425781 191.390625 144.910156 191.21875 144.410156 191.027344 L 144.410156 191.054688 C 144.445312 191.1875 144.492188 191.320312 144.546875 191.445312 C 144.867188 192.316406 145.195312 193.167969 145.515625 194.027344 C 146.410156 196.414062 147.335938 198.886719 148.304688 201.292969 C 148.898438 202.746094 149.609375 204.140625 150.4375 205.472656 C 150.722656 205.953125 151.070312 206.382812 151.484375 206.761719 C 151.894531 207.140625 152.351562 207.453125 152.855469 207.695312 C 153.355469 207.941406 153.882812 208.105469 154.433594 208.195312 C 154.988281 208.285156 155.539062 208.292969 156.09375 208.21875 C 157.148438 208.101562 158.105469 207.726562 158.960938 207.101562 C 159.847656 206.460938 160.53125 205.652344 161.011719 204.671875 C 161.242188 204.210938 161.40625 203.730469 161.511719 203.230469 C 161.613281 202.726562 161.644531 202.21875 161.613281 201.707031 C 161.582031 201.199219 161.480469 200.699219 161.316406 200.214844 C 161.148438 199.730469 160.921875 199.273438 160.636719 198.847656 Z M 139.984375 194.199219 C 140.386719 193.148438 140.789062 192.09375 141.203125 191.039062 C 141.195312 191.039062 141.1875 191.035156 141.183594 191.03125 C 141.164062 191.03125 141.148438 191.039062 141.128906 191.039062 C 141.074219 191.054688 141.019531 191.070312 140.964844 191.09375 C 140.050781 191.433594 139.125 191.773438 138.210938 192.109375 C 136.316406 192.804688 134.347656 193.527344 132.4375 194.28125 C 130.382812 195.023438 128.429688 195.976562 126.578125 197.136719 C 126.082031 197.460938 125.644531 197.851562 125.265625 198.308594 C 124.886719 198.765625 124.585938 199.265625 124.355469 199.8125 C 124.128906 200.359375 123.984375 200.929688 123.929688 201.519531 C 123.871094 202.109375 123.902344 202.695312 124.023438 203.277344 C 124.1875 204.085938 124.503906 204.828125 124.96875 205.511719 C 125.433594 206.195312 126.011719 206.761719 126.703125 207.210938 C 127.371094 207.660156 128.101562 207.964844 128.894531 208.125 C 129.683594 208.285156 130.476562 208.289062 131.269531 208.136719 C 132.179688 207.953125 133 207.578125 133.730469 207.007812 C 134.464844 206.441406 135.03125 205.738281 135.433594 204.898438 C 136.171875 203.542969 136.839844 202.152344 137.4375 200.726562 C 138.300781 198.566406 139.160156 196.339844 139.984375 194.199219 Z M 138.960938 202.445312 C 138.449219 203.476562 137.917969 204.558594 137.339844 205.765625 L 148.125 205.765625 L 148.109375 205.71875 C 147.578125 204.605469 147.046875 203.496094 146.515625 202.410156 C 146.457031 202.351562 146.386719 202.320312 146.304688 202.316406 C 144.980469 202.308594 143.617188 202.308594 142.234375 202.308594 C 141.226562 202.308594 140.210938 202.308594 139.1875 202.316406 C 139.09375 202.332031 139.019531 202.375 138.960938 202.445312 Z M 144.257812 196.835938 L 144.214844 196.816406 L 144.214844 196.78125 L 143.988281 196.132812 C 143.832031 195.679688 143.679688 195.234375 143.511719 194.777344 L 143.273438 194.128906 C 143.109375 193.652344 142.9375 193.183594 142.753906 192.664062 L 142.570312 193.195312 C 142.113281 194.464844 141.703125 195.621094 141.292969 196.78125 L 141.265625 196.828125 C 141.230469 196.875 141.203125 196.921875 141.179688 196.972656 C 140.90625 197.714844 140.625 198.4375 140.339844 199.160156 L 139.972656 200.09375 C 139.957031 200.132812 139.941406 200.171875 139.9375 200.210938 L 145.578125 200.210938 L 145.257812 199.386719 C 144.925781 198.527344 144.597656 197.675781 144.257812 196.835938 Z M 144.257812 196.835938 " fill-opacity="1" fill-rule="nonzero"/></g><g clip-path="url(#86c39d1ab0)"><path fill="#000" d="M 234.917969 210.507812 L 230.019531 210.507812 L 230.019531 213.933594 C 227.449219 214.101562 224.875 214.527344 222.296875 215.21875 L 222.296875 216.980469 L 242.527344 216.980469 L 242.527344 215.21875 C 239.996094 214.53125 237.457031 214.105469 234.917969 213.9375 Z M 229.96875 197.515625 C 230.40625 197.515625 230.765625 197.871094 230.765625 198.3125 C 230.765625 198.753906 230.410156 199.109375 229.96875 199.109375 L 223.84375 199.109375 C 224.71875 203.035156 228.222656 205.96875 232.414062 205.96875 C 236.601562 205.96875 240.105469 203.035156 240.980469 199.109375 L 234.855469 199.109375 C 234.417969 199.109375 234.0625 198.753906 234.0625 198.3125 C 234.0625 197.871094 234.417969 197.515625 234.855469 197.515625 L 241.183594 197.515625 C 241.1875 197.40625 241.191406 197.300781 241.191406 197.191406 L 241.191406 195.753906 L 234.855469 195.753906 C 234.417969 195.753906 234.0625 195.398438 234.0625 194.960938 C 234.0625 194.519531 234.417969 194.164062 234.855469 194.164062 L 241.191406 194.164062 L 241.191406 192.402344 L 234.855469 192.402344 C 234.417969 192.402344 234.0625 192.046875 234.0625 191.605469 C 234.0625 191.167969 234.417969 190.8125 234.855469 190.8125 L 241.191406 190.8125 L 241.191406 189.050781 L 234.855469 189.050781 C 234.417969 189.050781 234.0625 188.695312 234.0625 188.253906 C 234.0625 187.8125 234.417969 187.457031 234.855469 187.457031 L 241.191406 187.457031 L 241.191406 186.292969 C 241.191406 186.09375 241.183594 185.894531 241.171875 185.695312 L 234.855469 185.695312 C 234.417969 185.695312 234.0625 185.339844 234.0625 184.898438 C 234.0625 184.460938 234.417969 184.105469 234.855469 184.105469 L 240.917969 184.105469 C 239.945312 180.316406 236.503906 177.515625 232.410156 177.515625 C 228.320312 177.515625 224.878906 180.316406 223.90625 184.105469 L 229.96875 184.105469 C 230.40625 184.105469 230.765625 184.460938 230.765625 184.902344 C 230.765625 185.339844 230.410156 185.695312 229.96875 185.695312 L 223.65625 185.695312 C 223.640625 185.894531 223.632812 186.09375 223.632812 186.292969 L 223.632812 187.460938 L 229.96875 187.460938 C 230.40625 187.460938 230.765625 187.816406 230.765625 188.253906 C 230.765625 188.695312 230.410156 189.050781 229.96875 189.050781 L 223.632812 189.050781 L 223.632812 190.8125 L 229.96875 190.8125 C 230.40625 190.8125 230.765625 191.167969 230.765625 191.609375 C 230.765625 192.046875 230.410156 192.402344 229.96875 192.402344 L 223.632812 192.402344 L 223.632812 194.164062 L 229.96875 194.164062 C 230.40625 194.164062 230.765625 194.519531 230.765625 194.960938 C 230.765625 195.402344 230.410156 195.757812 229.96875 195.757812 L 223.632812 195.757812 L 223.632812 197.191406 C 223.632812 197.300781 223.636719 197.410156 223.640625 197.519531 L 229.96875 197.519531 Z M 242.953125 195.273438 L 242.953125 197.191406 C 242.953125 203.003906 238.226562 207.730469 232.414062 207.730469 C 226.601562 207.730469 221.871094 203.003906 221.871094 197.191406 L 221.871094 195.269531 L 220.109375 195.269531 L 220.109375 197.191406 C 220.109375 203.972656 225.628906 209.492188 232.410156 209.492188 C 239.195312 209.492188 244.714844 203.972656 244.714844 197.191406 L 244.714844 195.269531 L 242.953125 195.269531 Z M 242.953125 195.273438 " fill-opacity="1" fill-rule="nonzero"/></g><g clip-path="url(#6afa018f10)"><g clip-path="url(#588a7d47cd)"><g clip-path="url(#1c5b67d83b)"><path fill="#000" d="M 206.855469 97.265625 L 202.863281 96.707031 L 202.472656 99.496094 C 200.363281 99.339844 198.214844 99.394531 196.039062 99.660156 L 195.835938 101.097656 L 212.3125 103.402344 L 212.515625 101.96875 C 210.53125 101.121094 208.515625 100.484375 206.464844 100.058594 Z M 204.304688 86.121094 C 204.664062 86.167969 204.914062 86.5 204.863281 86.859375 C 204.8125 87.21875 204.484375 87.464844 204.125 87.414062 L 199.136719 86.71875 C 199.402344 90.015625 201.917969 92.804688 205.332031 93.28125 C 208.746094 93.761719 211.929688 91.769531 213.09375 88.671875 L 208.105469 87.972656 C 207.746094 87.921875 207.496094 87.59375 207.546875 87.234375 C 207.597656 86.875 207.929688 86.625 208.285156 86.675781 L 213.441406 87.398438 C 213.457031 87.308594 213.472656 87.222656 213.484375 87.132812 L 213.648438 85.964844 L 208.488281 85.242188 C 208.128906 85.191406 207.878906 84.863281 207.929688 84.503906 C 207.980469 84.144531 208.308594 83.894531 208.667969 83.945312 L 213.828125 84.667969 L 214.03125 83.234375 L 208.871094 82.511719 C 208.511719 82.460938 208.261719 82.132812 208.3125 81.773438 C 208.363281 81.414062 208.691406 81.164062 209.050781 81.214844 L 214.210938 81.9375 L 214.414062 80.503906 L 209.253906 79.78125 C 208.894531 79.730469 208.644531 79.402344 208.695312 79.042969 C 208.746094 78.683594 209.074219 78.433594 209.433594 78.484375 L 214.59375 79.207031 L 214.726562 78.257812 C 214.75 78.09375 214.765625 77.933594 214.777344 77.769531 L 209.632812 77.050781 C 209.277344 77 209.027344 76.667969 209.078125 76.3125 C 209.128906 75.953125 209.457031 75.703125 209.816406 75.753906 L 214.753906 76.445312 C 214.390625 73.25 211.910156 70.574219 208.578125 70.109375 C 205.242188 69.640625 202.121094 71.53125 200.898438 74.507812 L 205.835938 75.195312 C 206.191406 75.246094 206.441406 75.578125 206.390625 75.9375 C 206.34375 76.292969 206.011719 76.542969 205.652344 76.492188 L 200.511719 75.773438 C 200.480469 75.933594 200.449219 76.09375 200.425781 76.257812 L 200.292969 77.207031 L 205.453125 77.929688 C 205.808594 77.980469 206.058594 78.308594 206.011719 78.667969 C 205.960938 79.027344 205.628906 79.273438 205.269531 79.226562 L 200.109375 78.503906 L 199.910156 79.9375 L 205.070312 80.660156 C 205.429688 80.710938 205.679688 81.039062 205.628906 81.398438 C 205.578125 81.757812 205.246094 82.003906 204.890625 81.957031 L 199.730469 81.234375 L 199.527344 82.667969 L 204.6875 83.390625 C 205.046875 83.441406 205.296875 83.769531 205.246094 84.128906 C 205.195312 84.488281 204.863281 84.734375 204.507812 84.6875 L 199.347656 83.964844 L 199.183594 85.132812 C 199.171875 85.222656 199.160156 85.308594 199.152344 85.398438 Z M 215.136719 85.773438 L 214.917969 87.335938 C 214.253906 92.070312 209.863281 95.382812 205.132812 94.71875 C 200.398438 94.054688 197.085938 89.664062 197.746094 84.929688 L 197.964844 83.367188 L 196.53125 83.167969 L 196.3125 84.730469 C 195.539062 90.253906 199.40625 95.378906 204.929688 96.152344 C 210.453125 96.925781 215.578125 93.058594 216.351562 87.535156 L 216.570312 85.972656 Z M 215.136719 85.773438 " fill-opacity="1" fill-rule="nonzero"/></g></g></g><path stroke-linecap="butt" transform="matrix(0.539361, 0.521143, -0.521143, 0.539361, 118.580769, 250.698)" fill="none" stroke-linejoin="miter" d="M 15.998699 6.039291 L 16.000687 9.354377 L 10.239791 9.358552 L 10.241226 26.000137 L 6.307387 25.998863 L 6.305951 9.357277 L 0.548802 9.357832 L 0.546814 6.042746 Z M 15.998699 6.039291 " stroke="#000" stroke-width="1.922546" stroke-opacity="1" stroke-miterlimit="4"/><path stroke-linecap="butt" transform="matrix(0.649282, 0.37541, -0.37541, 0.649282, 134.251402, 264.719865)" fill="none" stroke-linejoin="miter" d="M 15.483199 13.546825 L 15.480563 6.040055 L 19.414838 6.039433 L 19.412328 26.002837 L 15.482562 26.000852 L 15.481537 16.904859 L 6.537372 16.908342 L 6.540299 25.997219 L 2.594399 25.998547 L 2.595008 6.042259 L 6.540907 6.040932 L 6.539033 13.550308 Z M 15.483199 13.546825 " stroke="#000" stroke-width="1.922546" stroke-opacity="1" stroke-miterlimit="4"/><path stroke-linecap="butt" transform="matrix(0.721187, 0.205888, -0.205888, 0.721187, 156.564297, 276.144531)" fill="none" stroke-linejoin="miter" d="M 6.537981 17.237221 L 6.54183 22.695873 L 16.069073 22.695034 L 16.069803 25.998842 L 2.594158 26.000274 L 2.594103 6.040781 L 15.848682 6.04288 L 15.849412 9.346688 L 6.538225 9.345426 L 6.538665 14.014255 L 14.674417 14.015267 L 14.678741 17.236803 Z M 6.537981 17.237221 " stroke="#000" stroke-width="1.922546" stroke-opacity="1" stroke-miterlimit="4"/><path stroke-linecap="butt" transform="matrix(0.744318, -0.0921419, 0.0921419, 0.744318, 192.096803, 281.8409)" fill="none" stroke-linejoin="miter" d="M 15.479762 13.549896 L 15.480532 6.039973 L 19.41153 6.038534 L 19.411988 26.002328 L 15.48163 25.998598 L 15.483753 16.909168 L 6.540971 16.909455 L 6.538848 25.998885 L 2.592343 25.998405 L 2.596414 6.04042 L 6.53775 6.04026 L 6.53698 13.550183 Z M 15.479762 13.549896 " stroke="#000" stroke-width="1.922546" stroke-opacity="1" stroke-miterlimit="4"/><path stroke-linecap="butt" transform="matrix(0.646845, -0.379593, 0.379593, 0.646845, 230.370385, 272.145597)" fill="none" stroke-linejoin="miter" d="M 11.863523 26.001034 L 7.098852 26.000969 L 0.356918 6.041405 L 4.547232 6.042596 L 9.391536 20.920987 L 9.73457 20.923008 L 14.513349 6.039368 L 18.59381 6.042521 Z M 11.863523 26.001034 " stroke="#000" stroke-width="1.922546" stroke-opacity="1" stroke-miterlimit="4"/><path stroke-linecap="butt" transform="matrix(0.54048, -0.519981, 0.519981, 0.54048, 249.545407, 259.615267)" fill="none" stroke-linejoin="miter" d="M 6.539532 17.23729 L 6.541916 22.696244 L 16.067542 22.696288 L 16.068791 26.000396 L 2.594466 26.003011 L 2.595384 6.041911 L 15.85239 6.039813 L 15.853639 9.343921 L 6.537969 9.343502 L 6.539849 14.01419 L 14.676802 14.015292 L 14.676485 17.238393 Z M 6.539532 17.23729 " stroke="#000" stroke-width="1.922546" stroke-opacity="1" stroke-miterlimit="4"/><g clip-path="url(#ec4d5f10ef)"><g clip-path="url(#79e8cd94a2)"><g clip-path="url(#48fc78a4a0)"><path fill="#000" d="M 227.019531 293.414062 L 224.902344 294.285156 L 225.511719 295.765625 C 224.429688 296.292969 223.394531 296.933594 222.402344 297.691406 L 222.714844 298.449219 L 231.457031 294.859375 L 231.144531 294.097656 C 229.925781 294.25 228.753906 294.515625 227.628906 294.894531 Z M 222.574219 288.679688 C 222.765625 288.601562 222.980469 288.691406 223.058594 288.882812 C 223.136719 289.070312 223.046875 289.289062 222.855469 289.367188 L 220.210938 290.453125 C 221.285156 291.996094 223.320312 292.640625 225.132812 291.898438 C 226.941406 291.152344 227.933594 289.265625 227.613281 287.410156 L 224.96875 288.5 C 224.78125 288.578125 224.5625 288.488281 224.484375 288.296875 C 224.40625 288.105469 224.496094 287.890625 224.6875 287.8125 L 227.421875 286.6875 C 227.402344 286.640625 227.386719 286.59375 227.367188 286.546875 L 227.113281 285.925781 L 224.375 287.050781 C 224.183594 287.128906 223.96875 287.039062 223.890625 286.847656 C 223.8125 286.65625 223.902344 286.441406 224.089844 286.363281 L 226.828125 285.238281 L 226.515625 284.476562 L 223.777344 285.601562 C 223.589844 285.679688 223.371094 285.589844 223.292969 285.398438 C 223.214844 285.207031 223.304688 284.992188 223.496094 284.914062 L 226.234375 283.789062 L 225.921875 283.027344 L 223.183594 284.152344 C 222.992188 284.230469 222.777344 284.140625 222.699219 283.949219 C 222.621094 283.761719 222.710938 283.542969 222.902344 283.464844 L 225.640625 282.339844 L 225.433594 281.835938 C 225.394531 281.75 225.355469 281.664062 225.316406 281.582031 L 222.589844 282.703125 C 222.398438 282.78125 222.179688 282.691406 222.101562 282.5 C 222.023438 282.3125 222.117188 282.09375 222.304688 282.015625 L 224.925781 280.941406 C 223.832031 279.476562 221.847656 278.875 220.078125 279.601562 C 218.3125 280.328125 217.320312 282.148438 217.574219 283.960938 L 220.195312 282.882812 C 220.382812 282.804688 220.601562 282.894531 220.679688 283.085938 C 220.757812 283.277344 220.667969 283.492188 220.476562 283.570312 L 217.75 284.691406 C 217.777344 284.78125 217.808594 284.867188 217.84375 284.953125 L 218.050781 285.457031 L 220.789062 284.332031 C 220.980469 284.253906 221.195312 284.34375 221.273438 284.535156 C 221.351562 284.726562 221.261719 284.941406 221.070312 285.019531 L 218.332031 286.144531 L 218.648438 286.90625 L 221.382812 285.78125 C 221.574219 285.703125 221.792969 285.792969 221.871094 285.984375 C 221.949219 286.175781 221.855469 286.390625 221.667969 286.46875 L 218.929688 287.59375 L 219.242188 288.355469 L 221.980469 287.230469 C 222.167969 287.152344 222.386719 287.242188 222.464844 287.433594 C 222.542969 287.625 222.453125 287.839844 222.261719 287.917969 L 219.523438 289.042969 L 219.777344 289.664062 C 219.796875 289.710938 219.820312 289.757812 219.839844 289.800781 Z M 227.785156 285.402344 L 228.128906 286.234375 C 229.160156 288.746094 227.957031 291.628906 225.445312 292.660156 C 222.933594 293.691406 220.050781 292.488281 219.015625 289.976562 L 218.675781 289.144531 L 217.914062 289.460938 L 218.257812 290.289062 C 219.460938 293.21875 222.824219 294.625 225.757812 293.421875 C 228.6875 292.214844 230.09375 288.851562 228.886719 285.921875 L 228.546875 285.089844 Z M 227.785156 285.402344 " fill-opacity="1" fill-rule="nonzero"/></g></g></g><g clip-path="url(#8d417633d6)"><path fill="#000" d="M 292.109375 204.222656 L 298.726562 204.222656 C 298.722656 204.253906 298.710938 204.285156 298.695312 204.316406 C 298.628906 204.453125 298.558594 204.585938 298.492188 204.71875 C 298.316406 205.070312 298.128906 205.433594 297.933594 205.789062 C 297.882812 205.855469 297.816406 205.886719 297.734375 205.890625 C 296.199219 205.902344 294.640625 205.902344 293.097656 205.890625 C 293.03125 205.894531 292.972656 205.871094 292.925781 205.820312 C 292.703125 205.398438 292.480469 204.964844 292.269531 204.542969 L 292.113281 204.238281 C 292.113281 204.234375 292.109375 204.226562 292.109375 204.222656 Z M 293.742188 207.59375 C 294.074219 208.011719 294.480469 208.339844 294.964844 208.574219 L 294.964844 209.640625 C 294.964844 209.769531 295.007812 209.875 295.097656 209.964844 C 295.1875 210.054688 295.292969 210.097656 295.421875 210.097656 C 295.546875 210.097656 295.652344 210.054688 295.742188 209.964844 C 295.832031 209.875 295.878906 209.769531 295.878906 209.640625 L 295.878906 208.554688 L 295.886719 208.550781 C 296.0625 208.46875 296.230469 208.371094 296.390625 208.257812 C 296.859375 207.890625 297.25 207.449219 297.554688 206.933594 L 293.269531 206.933594 C 293.40625 207.167969 293.566406 207.386719 293.742188 207.59375 Z M 291.664062 196.03125 L 291.636719 196.039062 C 291.648438 195.558594 291.746094 195.09375 291.925781 194.648438 L 291.933594 194.636719 C 291.976562 194.535156 292.023438 194.429688 292.082031 194.324219 C 292.101562 194.285156 292.117188 194.246094 292.140625 194.210938 C 292.179688 194.140625 292.222656 194.074219 292.269531 194.007812 C 292.304688 193.957031 292.335938 193.902344 292.371094 193.855469 C 292.378906 193.847656 292.382812 193.835938 292.390625 193.828125 C 292.535156 193.636719 292.695312 193.46875 292.875 193.3125 C 292.804688 193.15625 292.71875 193.007812 292.617188 192.871094 C 292.5 192.726562 292.371094 192.597656 292.226562 192.480469 C 292.109375 192.394531 291.988281 192.320312 291.859375 192.253906 C 291.75 192.1875 291.679688 192.097656 291.648438 191.976562 C 291.617188 191.855469 291.632812 191.738281 291.695312 191.628906 C 291.757812 191.523438 291.847656 191.453125 291.964844 191.417969 C 292.089844 191.390625 292.207031 191.402344 292.316406 191.464844 C 292.628906 191.621094 292.90625 191.828125 293.144531 192.085938 C 293.273438 192.226562 293.390625 192.375 293.496094 192.535156 C 293.546875 192.621094 293.597656 192.707031 293.640625 192.796875 C 294 192.613281 294.382812 192.488281 294.78125 192.417969 C 294.824219 192.410156 294.863281 192.402344 294.90625 192.398438 C 295.054688 192.375 295.203125 192.359375 295.355469 192.355469 C 295.5 192.351562 295.640625 192.359375 295.78125 192.378906 C 295.851562 192.386719 295.917969 192.394531 295.988281 192.40625 C 296.101562 192.425781 296.222656 192.449219 296.351562 192.480469 L 296.417969 192.5 C 296.691406 192.570312 296.953125 192.671875 297.203125 192.796875 C 297.246094 192.707031 297.296875 192.621094 297.351562 192.535156 C 297.453125 192.375 297.570312 192.226562 297.699219 192.085938 C 297.9375 191.832031 298.214844 191.625 298.527344 191.464844 C 298.636719 191.402344 298.753906 191.390625 298.878906 191.417969 C 298.996094 191.453125 299.085938 191.523438 299.152344 191.628906 C 299.210938 191.738281 299.226562 191.855469 299.195312 191.976562 C 299.164062 192.097656 299.09375 192.1875 298.988281 192.253906 C 298.859375 192.320312 298.734375 192.394531 298.617188 192.480469 C 298.472656 192.597656 298.34375 192.726562 298.226562 192.871094 C 298.128906 193.007812 298.042969 193.15625 297.96875 193.308594 C 298.136719 193.453125 298.285156 193.613281 298.421875 193.789062 C 298.433594 193.800781 298.445312 193.8125 298.453125 193.824219 C 298.464844 193.839844 298.46875 193.84375 298.476562 193.851562 C 298.953125 194.503906 299.195312 195.234375 299.207031 196.042969 C 299.101562 196.003906 298.996094 195.964844 298.894531 195.925781 C 298.839844 195.90625 298.789062 195.886719 298.738281 195.871094 C 298.660156 195.839844 298.582031 195.8125 298.503906 195.785156 C 298.320312 195.714844 298.140625 195.644531 297.957031 195.582031 C 297.578125 195.445312 297.191406 195.308594 296.804688 195.171875 C 296.414062 195.035156 296.023438 194.902344 295.632812 194.769531 C 295.570312 194.753906 295.507812 194.742188 295.445312 194.742188 C 295.351562 194.746094 295.261719 194.761719 295.175781 194.789062 C 294.539062 195.007812 293.902344 195.234375 293.273438 195.460938 L 292.644531 195.6875 L 292.304688 195.804688 L 291.6875 196.023438 Z M 297.964844 193.304688 L 297.972656 193.285156 C 297.972656 193.292969 297.96875 193.300781 297.964844 193.304688 Z M 292.878906 193.308594 C 292.875 193.300781 292.871094 193.296875 292.867188 193.289062 Z M 304.105469 199.828125 C 303.753906 199.320312 303.300781 198.9375 302.742188 198.671875 C 301.433594 198 300.082031 197.421875 298.695312 196.933594 C 298.121094 196.714844 297.558594 196.515625 296.957031 196.296875 C 296.71875 196.207031 296.46875 196.125 296.222656 196.03125 L 296.222656 196.042969 C 296.242188 196.109375 296.265625 196.171875 296.289062 196.234375 C 296.445312 196.65625 296.605469 197.070312 296.761719 197.488281 C 297.195312 198.648438 297.644531 199.847656 298.117188 201.015625 C 298.402344 201.722656 298.75 202.398438 299.152344 203.046875 C 299.433594 203.523438 299.824219 203.882812 300.324219 204.125 C 300.824219 204.367188 301.347656 204.449219 301.898438 204.378906 C 302.410156 204.320312 302.875 204.140625 303.289062 203.835938 C 303.71875 203.523438 304.050781 203.132812 304.285156 202.65625 C 304.511719 202.203125 304.609375 201.722656 304.578125 201.21875 C 304.546875 200.710938 304.386719 200.25 304.105469 199.828125 Z M 294.074219 197.570312 C 294.273438 197.058594 294.46875 196.546875 294.667969 196.035156 C 294.664062 196.035156 294.660156 196.035156 294.660156 196.03125 C 294.648438 196.03125 294.640625 196.035156 294.632812 196.035156 C 294.605469 196.042969 294.578125 196.050781 294.550781 196.0625 C 294.105469 196.226562 293.660156 196.390625 293.214844 196.558594 C 292.292969 196.894531 291.339844 197.246094 290.410156 197.609375 C 289.414062 197.972656 288.464844 198.433594 287.566406 198.996094 C 287.074219 199.320312 286.714844 199.753906 286.488281 200.296875 C 286.261719 200.839844 286.207031 201.402344 286.324219 201.976562 C 286.496094 202.796875 286.929688 203.433594 287.625 203.890625 C 288.304688 204.34375 289.042969 204.492188 289.84375 204.335938 C 290.285156 204.25 290.683594 204.066406 291.039062 203.789062 C 291.394531 203.515625 291.671875 203.171875 291.867188 202.765625 C 292.222656 202.109375 292.546875 201.433594 292.839844 200.742188 C 293.257812 199.691406 293.675781 198.609375 294.074219 197.570312 Z M 293.578125 201.574219 C 293.328125 202.078125 293.074219 202.601562 292.792969 203.1875 L 298.03125 203.1875 L 298.019531 203.164062 C 297.761719 202.621094 297.503906 202.085938 297.246094 201.558594 C 297.21875 201.527344 297.183594 201.515625 297.144531 201.511719 C 296.5 201.507812 295.839844 201.507812 295.167969 201.507812 C 294.679688 201.507812 294.1875 201.507812 293.6875 201.511719 C 293.644531 201.519531 293.605469 201.539062 293.578125 201.574219 Z M 296.152344 198.851562 L 296.128906 198.84375 L 296.128906 198.824219 L 296.019531 198.507812 C 295.945312 198.289062 295.871094 198.074219 295.789062 197.851562 L 295.671875 197.535156 C 295.59375 197.304688 295.507812 197.078125 295.421875 196.824219 L 295.332031 197.082031 C 295.109375 197.699219 294.910156 198.261719 294.710938 198.824219 L 294.695312 198.847656 C 294.679688 198.871094 294.667969 198.894531 294.65625 198.917969 C 294.523438 199.277344 294.386719 199.628906 294.25 199.980469 L 294.070312 200.433594 C 294.0625 200.453125 294.054688 200.46875 294.054688 200.492188 L 296.792969 200.492188 L 296.636719 200.089844 C 296.476562 199.671875 296.316406 199.257812 296.152344 198.851562 Z M 296.152344 198.851562 " fill-opacity="1" fill-rule="nonzero"/></g><g clip-path="url(#2926e615ec)"><path fill="#000" d="M 82.117188 204.894531 L 79.835938 204.894531 L 79.835938 206.488281 C 78.640625 206.566406 77.441406 206.765625 76.238281 207.085938 L 76.238281 207.90625 L 85.660156 207.90625 L 85.660156 207.085938 C 84.480469 206.765625 83.300781 206.566406 82.117188 206.488281 Z M 79.8125 198.84375 C 80.015625 198.84375 80.183594 199.007812 80.183594 199.214844 C 80.183594 199.417969 80.019531 199.582031 79.8125 199.582031 L 76.960938 199.582031 C 77.367188 201.414062 79 202.78125 80.949219 202.78125 C 82.902344 202.78125 84.53125 201.414062 84.941406 199.582031 L 82.089844 199.582031 C 81.882812 199.582031 81.71875 199.417969 81.71875 199.214844 C 81.71875 199.007812 81.882812 198.84375 82.089844 198.84375 L 85.035156 198.84375 C 85.039062 198.792969 85.039062 198.742188 85.039062 198.691406 L 85.039062 198.023438 L 82.089844 198.023438 C 81.882812 198.023438 81.71875 197.855469 81.71875 197.652344 C 81.71875 197.445312 81.882812 197.28125 82.089844 197.28125 L 85.039062 197.28125 L 85.039062 196.460938 L 82.089844 196.460938 C 81.882812 196.460938 81.71875 196.296875 81.71875 196.089844 C 81.71875 195.886719 81.882812 195.71875 82.089844 195.71875 L 85.039062 195.71875 L 85.039062 194.898438 L 82.089844 194.898438 C 81.882812 194.898438 81.71875 194.734375 81.71875 194.527344 C 81.71875 194.324219 81.882812 194.160156 82.089844 194.160156 L 85.039062 194.160156 L 85.039062 193.617188 C 85.039062 193.523438 85.035156 193.429688 85.03125 193.335938 L 82.089844 193.335938 C 81.882812 193.335938 81.71875 193.171875 81.71875 192.96875 C 81.71875 192.761719 81.882812 192.597656 82.089844 192.597656 L 84.910156 192.597656 C 84.457031 190.832031 82.855469 189.527344 80.949219 189.527344 C 79.042969 189.527344 77.441406 190.832031 76.988281 192.597656 L 79.8125 192.597656 C 80.015625 192.597656 80.183594 192.761719 80.183594 192.96875 C 80.183594 193.171875 80.019531 193.339844 79.8125 193.339844 L 76.871094 193.339844 C 76.867188 193.429688 76.863281 193.523438 76.863281 193.617188 L 76.863281 194.160156 L 79.8125 194.160156 C 80.015625 194.160156 80.183594 194.324219 80.183594 194.53125 C 80.183594 194.734375 80.019531 194.898438 79.8125 194.898438 L 76.863281 194.898438 L 76.863281 195.71875 L 79.8125 195.71875 C 80.015625 195.71875 80.183594 195.886719 80.183594 196.089844 C 80.183594 196.296875 80.019531 196.460938 79.8125 196.460938 L 76.863281 196.460938 L 76.863281 197.28125 L 79.8125 197.28125 C 80.015625 197.28125 80.183594 197.449219 80.183594 197.652344 C 80.183594 197.855469 80.019531 198.023438 79.8125 198.023438 L 76.863281 198.023438 L 76.863281 198.691406 C 76.863281 198.742188 76.863281 198.792969 76.867188 198.84375 Z M 85.859375 197.796875 L 85.859375 198.691406 C 85.859375 201.398438 83.65625 203.601562 80.949219 203.601562 C 78.242188 203.601562 76.042969 201.398438 76.042969 198.691406 L 76.042969 197.796875 L 75.222656 197.796875 L 75.222656 198.691406 C 75.222656 201.847656 77.792969 204.417969 80.949219 204.417969 C 84.109375 204.417969 86.679688 201.847656 86.679688 198.691406 L 86.679688 197.796875 Z M 85.859375 197.796875 " fill-opacity="1" fill-rule="nonzero"/></g><g clip-path="url(#d7a99ef6a8)"><path fill="#000" d="M 146.136719 165.171875 C 146.21875 165.914062 146.316406 166.65625 146.433594 167.394531 L 186.097656 167.394531 C 186.210938 166.65625 186.3125 165.914062 186.394531 165.171875 Z M 146.136719 165.171875 " fill-opacity="1" fill-rule="nonzero"/></g><g clip-path="url(#3a4994b486)"><path fill="#000" d="M 144.78125 162.351562 C 144.824219 163.09375 144.882812 163.835938 144.957031 164.578125 L 185.347656 164.578125 C 185.421875 163.835938 185.480469 163.09375 185.523438 162.351562 Z M 144.78125 162.351562 " fill-opacity="1" fill-rule="nonzero"/></g><g clip-path="url(#9c82b78fd6)"><path fill="#000" d="M 145.804688 159.53125 C 145.808594 160.273438 145.824219 161.015625 145.863281 161.757812 L 186.667969 161.757812 C 186.703125 161.015625 186.722656 160.273438 186.726562 159.53125 Z M 145.804688 159.53125 " fill-opacity="1" fill-rule="nonzero"/></g><path fill="#000" d="M 173.273438 178.671875 C 174.664062 177.988281 176.027344 177.246094 177.359375 176.445312 L 155.167969 176.445312 C 156.496094 177.246094 157.863281 177.988281 159.253906 178.671875 Z M 173.273438 178.671875 " fill-opacity="1" fill-rule="nonzero"/><path fill="#000" d="M 149.847656 173.625 C 150.898438 174.40625 151.984375 175.148438 153.09375 175.851562 L 177.207031 175.851562 C 178.320312 175.148438 179.402344 174.40625 180.457031 173.625 Z M 149.847656 173.625 " fill-opacity="1" fill-rule="nonzero"/><g clip-path="url(#b03224012c)"><path fill="#000" d="M 144.75 156.714844 C 144.714844 157.453125 144.695312 158.195312 144.691406 158.9375 L 185.613281 158.9375 C 185.613281 158.195312 185.589844 157.453125 185.554688 156.714844 Z M 144.75 156.714844 " fill-opacity="1" fill-rule="nonzero"/></g><path fill="#000" d="M 145.417969 167.988281 C 145.546875 168.734375 145.6875 169.480469 145.847656 170.214844 L 184.457031 170.214844 C 184.617188 169.480469 184.757812 168.734375 184.886719 167.988281 Z M 145.417969 167.988281 " fill-opacity="1" fill-rule="nonzero"/><path fill="#000" d="M 147.492188 170.808594 C 148.355469 171.574219 149.246094 172.320312 150.171875 173.03125 L 182.359375 173.03125 C 183.28125 172.320312 184.175781 171.574219 185.039062 170.808594 Z M 147.492188 170.808594 " fill-opacity="1" fill-rule="nonzero"/><path fill="#000" d="M 145.320312 151.074219 C 145.207031 151.8125 145.105469 152.554688 145.023438 153.300781 L 185.28125 153.300781 C 185.199219 152.554688 185.101562 151.8125 184.984375 151.074219 Z M 145.320312 151.074219 " fill-opacity="1" fill-rule="nonzero"/><g clip-path="url(#8ac296e0c4)"><path fill="#000" d="M 146.070312 153.894531 C 145.996094 154.632812 145.9375 155.375 145.894531 156.121094 L 186.636719 156.121094 C 186.59375 155.375 186.535156 154.632812 186.460938 153.894531 Z M 146.070312 153.894531 " fill-opacity="1" fill-rule="nonzero"/></g><g clip-path="url(#73c6cec795)"><path fill="#000" d="M 159.398438 179.265625 C 161.28125 180.125 163.207031 180.875 165.152344 181.488281 C 167.097656 180.875 169.019531 180.125 170.90625 179.265625 Z M 159.398438 179.265625 " fill-opacity="1" fill-rule="nonzero"/></g><path fill="#000" d="M 158.144531 139.800781 C 156.75 140.480469 155.386719 141.222656 154.054688 142.027344 L 176.246094 142.027344 C 174.917969 141.222656 173.550781 140.480469 172.160156 139.800781 Z M 158.144531 139.800781 " fill-opacity="1" fill-rule="nonzero"/><g clip-path="url(#824a4e3bcc)"><path fill="#000" d="M 160.511719 139.207031 L 172.015625 139.207031 C 170.132812 138.347656 168.210938 137.597656 166.265625 136.980469 C 164.320312 137.597656 162.394531 138.347656 160.511719 139.207031 Z M 160.511719 139.207031 " fill-opacity="1" fill-rule="nonzero"/></g><path fill="#000" d="M 146.960938 148.257812 C 146.800781 148.992188 146.660156 149.734375 146.535156 150.480469 L 186 150.480469 C 185.871094 149.734375 185.730469 148.992188 185.570312 148.257812 Z M 146.960938 148.257812 " fill-opacity="1" fill-rule="nonzero"/><path fill="#000" d="M 149.058594 145.4375 C 148.132812 146.152344 147.242188 146.894531 146.378906 147.664062 L 183.925781 147.664062 C 183.0625 146.894531 182.167969 146.152344 181.246094 145.4375 Z M 149.058594 145.4375 " fill-opacity="1" fill-rule="nonzero"/><path fill="#000" d="M 154.210938 142.621094 C 153.097656 143.320312 152.011719 144.066406 150.960938 144.84375 L 181.566406 144.84375 C 180.515625 144.066406 179.433594 143.320312 178.320312 142.621094 Z M 154.210938 142.621094 " fill-opacity="1" fill-rule="nonzero"/><g clip-path="url(#3242b24997)"><path fill="#000" d="M 193.3125 164.894531 C 193.394531 165.640625 193.496094 166.382812 193.609375 167.121094 L 233.273438 167.121094 C 233.390625 166.382812 233.488281 165.640625 233.570312 164.894531 Z M 193.3125 164.894531 " fill-opacity="1" fill-rule="nonzero"/></g><g clip-path="url(#32148e2e11)"><path fill="#000" d="M 191.957031 162.074219 C 192 162.820312 192.058594 163.5625 192.132812 164.300781 L 232.523438 164.300781 C 232.597656 163.5625 232.65625 162.820312 232.703125 162.074219 Z M 191.957031 162.074219 " fill-opacity="1" fill-rule="nonzero"/></g><g clip-path="url(#ab9b3d48d6)"><path fill="#000" d="M 192.980469 159.257812 C 192.984375 160 193.003906 160.742188 193.039062 161.480469 L 233.84375 161.480469 C 233.878906 160.742188 233.902344 160 233.902344 159.257812 Z M 192.980469 159.257812 " fill-opacity="1" fill-rule="nonzero"/></g><path fill="#000" d="M 220.449219 178.394531 C 221.839844 177.714844 223.207031 176.972656 224.535156 176.167969 L 202.34375 176.167969 C 203.671875 176.972656 205.039062 177.714844 206.429688 178.394531 Z M 220.449219 178.394531 " fill-opacity="1" fill-rule="nonzero"/><path fill="#000" d="M 197.023438 173.351562 C 198.074219 174.132812 199.160156 174.875 200.269531 175.578125 L 224.382812 175.578125 C 225.496094 174.875 226.578125 174.132812 227.632812 173.351562 Z M 197.023438 173.351562 " fill-opacity="1" fill-rule="nonzero"/><g clip-path="url(#24b5a9effa)"><path fill="#000" d="M 191.925781 156.4375 C 191.890625 157.179688 191.871094 157.921875 191.867188 158.664062 L 232.789062 158.664062 C 232.789062 157.921875 232.769531 157.179688 232.730469 156.4375 Z M 191.925781 156.4375 " fill-opacity="1" fill-rule="nonzero"/></g><path fill="#000" d="M 192.59375 167.714844 C 192.722656 168.460938 192.863281 169.203125 193.023438 169.9375 L 231.632812 169.9375 C 231.792969 169.203125 231.9375 168.460938 232.0625 167.714844 Z M 192.59375 167.714844 " fill-opacity="1" fill-rule="nonzero"/><path fill="#000" d="M 194.667969 170.53125 C 195.53125 171.300781 196.421875 172.042969 197.347656 172.757812 L 229.535156 172.757812 C 230.457031 172.042969 231.351562 171.300781 232.214844 170.53125 Z M 194.667969 170.53125 " fill-opacity="1" fill-rule="nonzero"/><path fill="#000" d="M 192.496094 150.800781 C 192.382812 151.539062 192.285156 152.28125 192.199219 153.027344 L 232.457031 153.027344 C 232.375 152.28125 232.277344 151.539062 232.160156 150.800781 Z M 192.496094 150.800781 " fill-opacity="1" fill-rule="nonzero"/><g clip-path="url(#0927603a66)"><path fill="#000" d="M 193.246094 153.621094 C 193.171875 154.359375 193.113281 155.101562 193.070312 155.84375 L 233.8125 155.84375 C 233.769531 155.101562 233.710938 154.359375 233.636719 153.621094 Z M 193.246094 153.621094 " fill-opacity="1" fill-rule="nonzero"/></g><g clip-path="url(#67f8e5ebaa)"><path fill="#000" d="M 206.574219 178.988281 C 208.457031 179.847656 210.382812 180.597656 212.328125 181.214844 C 214.273438 180.597656 216.199219 179.847656 218.082031 178.988281 Z M 206.574219 178.988281 " fill-opacity="1" fill-rule="nonzero"/></g><path fill="#000" d="M 205.320312 139.523438 C 203.925781 140.207031 202.5625 140.949219 201.230469 141.75 L 223.421875 141.75 C 222.09375 140.949219 220.726562 140.207031 219.335938 139.523438 Z M 205.320312 139.523438 " fill-opacity="1" fill-rule="nonzero"/><g clip-path="url(#c8b46e66d9)"><path fill="#000" d="M 207.6875 138.933594 L 219.191406 138.933594 C 217.308594 138.070312 215.386719 137.320312 213.441406 136.707031 C 211.496094 137.320312 209.570312 138.070312 207.6875 138.933594 Z M 207.6875 138.933594 " fill-opacity="1" fill-rule="nonzero"/></g><g clip-path="url(#d99f252d1d)"><path fill="#000" d="M 194.136719 147.980469 C 193.976562 148.71875 193.835938 149.460938 193.710938 150.207031 L 233.175781 150.207031 C 233.046875 149.460938 232.90625 148.71875 232.746094 147.980469 Z M 194.136719 147.980469 " fill-opacity="1" fill-rule="nonzero"/></g><path fill="#000" d="M 196.234375 145.164062 C 195.308594 145.875 194.421875 146.621094 193.554688 147.386719 L 231.101562 147.386719 C 230.238281 146.621094 229.34375 145.875 228.421875 145.164062 Z M 196.234375 145.164062 " fill-opacity="1" fill-rule="nonzero"/><path fill="#000" d="M 201.386719 142.34375 C 200.273438 143.046875 199.1875 143.789062 198.136719 144.570312 L 228.746094 144.570312 C 227.691406 143.789062 226.609375 143.046875 225.496094 142.34375 Z M 201.386719 142.34375 " fill-opacity="1" fill-rule="nonzero"/><path fill="#000" d="M 168.664062 203.171875 C 168.75 203.917969 168.847656 204.660156 168.964844 205.398438 L 208.628906 205.398438 C 208.742188 204.660156 208.84375 203.917969 208.925781 203.171875 Z M 168.664062 203.171875 " fill-opacity="1" fill-rule="nonzero"/><g clip-path="url(#3a025f3dfd)"><path fill="#000" d="M 167.308594 200.355469 C 167.355469 201.097656 167.414062 201.839844 167.488281 202.578125 L 207.878906 202.578125 C 207.953125 201.839844 208.011719 201.097656 208.054688 200.355469 Z M 167.308594 200.355469 " fill-opacity="1" fill-rule="nonzero"/></g><g clip-path="url(#94a500765a)"><path fill="#000" d="M 168.335938 197.535156 C 168.339844 198.277344 168.355469 199.019531 168.390625 199.761719 L 209.199219 199.761719 C 209.234375 199.019531 209.253906 198.277344 209.257812 197.535156 Z M 168.335938 197.535156 " fill-opacity="1" fill-rule="nonzero"/></g><path fill="#000" d="M 195.800781 216.671875 C 197.195312 215.992188 198.558594 215.25 199.890625 214.449219 L 177.699219 214.449219 C 179.027344 215.25 180.394531 215.992188 181.785156 216.671875 Z M 195.800781 216.671875 " fill-opacity="1" fill-rule="nonzero"/><path fill="#000" d="M 172.378906 211.628906 C 173.429688 212.410156 174.515625 213.152344 175.625 213.855469 L 199.738281 213.855469 C 200.847656 213.152344 201.933594 212.410156 202.984375 211.628906 Z M 172.378906 211.628906 " fill-opacity="1" fill-rule="nonzero"/><g clip-path="url(#066dd480c0)"><path fill="#000" d="M 167.277344 194.714844 C 167.242188 195.457031 167.226562 196.199219 167.222656 196.941406 L 208.144531 196.941406 C 208.140625 196.199219 208.121094 195.457031 208.085938 194.714844 Z M 167.277344 194.714844 " fill-opacity="1" fill-rule="nonzero"/></g><g clip-path="url(#b71d07f9de)"><path fill="#000" d="M 167.949219 205.992188 C 168.074219 206.738281 168.21875 207.480469 168.378906 208.21875 L 206.988281 208.21875 C 207.148438 207.480469 207.289062 206.738281 207.417969 205.992188 Z M 167.949219 205.992188 " fill-opacity="1" fill-rule="nonzero"/></g><path fill="#000" d="M 170.019531 208.808594 C 170.882812 209.578125 171.777344 210.324219 172.699219 211.035156 L 204.886719 211.035156 C 205.8125 210.324219 206.703125 209.578125 207.566406 208.808594 Z M 170.019531 208.808594 " fill-opacity="1" fill-rule="nonzero"/><g clip-path="url(#7d19514de3)"><path fill="#000" d="M 167.851562 189.078125 C 167.734375 189.816406 167.636719 190.558594 167.554688 191.304688 L 207.8125 191.304688 C 207.730469 190.558594 207.628906 189.816406 207.515625 189.078125 Z M 167.851562 189.078125 " fill-opacity="1" fill-rule="nonzero"/></g><g clip-path="url(#00c353e80d)"><path fill="#000" d="M 168.601562 191.898438 C 168.527344 192.636719 168.46875 193.378906 168.421875 194.121094 L 209.167969 194.121094 C 209.125 193.378906 209.066406 192.636719 208.988281 191.898438 Z M 168.601562 191.898438 " fill-opacity="1" fill-rule="nonzero"/></g><g clip-path="url(#02918ae856)"><path fill="#000" d="M 181.925781 217.265625 C 183.8125 218.128906 185.738281 218.878906 187.683594 219.492188 C 189.625 218.878906 191.550781 218.128906 193.4375 217.265625 Z M 181.925781 217.265625 " fill-opacity="1" fill-rule="nonzero"/></g><path fill="#000" d="M 180.675781 177.804688 C 179.28125 178.484375 177.917969 179.226562 176.585938 180.027344 L 198.773438 180.027344 C 197.445312 179.226562 196.082031 178.484375 194.6875 177.804688 Z M 180.675781 177.804688 " fill-opacity="1" fill-rule="nonzero"/><g clip-path="url(#99e9146fc1)"><path fill="#000" d="M 183.042969 177.210938 L 194.546875 177.210938 C 192.664062 176.347656 190.738281 175.601562 188.796875 174.984375 C 186.847656 175.601562 184.925781 176.347656 183.042969 177.210938 Z M 183.042969 177.210938 " fill-opacity="1" fill-rule="nonzero"/></g><path fill="#000" d="M 169.492188 186.261719 C 169.332031 186.996094 169.1875 187.738281 169.0625 188.484375 L 208.527344 188.484375 C 208.402344 187.738281 208.261719 186.996094 208.097656 186.261719 Z M 169.492188 186.261719 " fill-opacity="1" fill-rule="nonzero"/><path fill="#000" d="M 171.585938 183.441406 C 170.664062 184.152344 169.773438 184.898438 168.910156 185.667969 L 206.453125 185.667969 C 205.589844 184.898438 204.699219 184.152344 203.777344 183.441406 Z M 171.585938 183.441406 " fill-opacity="1" fill-rule="nonzero"/><path fill="#000" d="M 176.738281 180.621094 C 175.625 181.324219 174.542969 182.066406 173.492188 182.847656 L 204.097656 182.847656 C 203.046875 182.066406 201.960938 181.324219 200.847656 180.621094 Z M 176.738281 180.621094 " fill-opacity="1" fill-rule="nonzero"/><g clip-path="url(#c97b0fbdae)"><path fill="#000" d="M 146.136719 242.042969 C 146.21875 242.789062 146.316406 243.53125 146.433594 244.269531 L 186.097656 244.269531 C 186.210938 243.53125 186.3125 242.789062 186.394531 242.042969 Z M 146.136719 242.042969 " fill-opacity="1" fill-rule="nonzero"/></g><g clip-path="url(#ae83697038)"><path fill="#000" d="M 144.78125 239.226562 C 144.824219 239.96875 144.882812 240.710938 144.957031 241.449219 L 185.347656 241.449219 C 185.421875 240.710938 185.480469 239.96875 185.523438 239.226562 Z M 144.78125 239.226562 " fill-opacity="1" fill-rule="nonzero"/></g><g clip-path="url(#7663d1aeda)"><path fill="#000" d="M 145.804688 236.40625 C 145.808594 237.148438 145.824219 237.890625 145.863281 238.632812 L 186.667969 238.632812 C 186.703125 237.890625 186.722656 237.148438 186.726562 236.40625 Z M 145.804688 236.40625 " fill-opacity="1" fill-rule="nonzero"/></g><path fill="#000" d="M 173.273438 255.542969 C 174.664062 254.863281 176.027344 254.121094 177.359375 253.320312 L 155.167969 253.320312 C 156.496094 254.121094 157.863281 254.863281 159.253906 255.542969 Z M 173.273438 255.542969 " fill-opacity="1" fill-rule="nonzero"/><path fill="#000" d="M 149.847656 250.5 C 150.898438 251.28125 151.984375 252.023438 153.09375 252.726562 L 177.207031 252.726562 C 178.320312 252.023438 179.402344 251.28125 180.457031 250.5 Z M 149.847656 250.5 " fill-opacity="1" fill-rule="nonzero"/><g clip-path="url(#57efb6d795)"><path fill="#000" d="M 144.75 233.585938 C 144.714844 234.328125 144.695312 235.070312 144.691406 235.8125 L 185.613281 235.8125 C 185.613281 235.070312 185.589844 234.328125 185.554688 233.585938 Z M 144.75 233.585938 " fill-opacity="1" fill-rule="nonzero"/></g><path fill="#000" d="M 145.417969 244.863281 C 145.546875 245.609375 145.6875 246.351562 145.847656 247.089844 L 184.457031 247.089844 C 184.617188 246.351562 184.757812 245.609375 184.886719 244.863281 Z M 145.417969 244.863281 " fill-opacity="1" fill-rule="nonzero"/><path fill="#000" d="M 147.492188 247.683594 C 148.355469 248.449219 149.246094 249.195312 150.171875 249.90625 L 182.359375 249.90625 C 183.28125 249.195312 184.175781 248.449219 185.039062 247.683594 Z M 147.492188 247.683594 " fill-opacity="1" fill-rule="nonzero"/><path fill="#000" d="M 145.320312 227.949219 C 145.207031 228.6875 145.105469 229.429688 145.023438 230.175781 L 185.28125 230.175781 C 185.199219 229.429688 185.101562 228.6875 184.984375 227.949219 Z M 145.320312 227.949219 " fill-opacity="1" fill-rule="nonzero"/><g clip-path="url(#230c376c1e)"><path fill="#000" d="M 146.070312 230.769531 C 145.996094 231.507812 145.9375 232.25 145.894531 232.996094 L 186.636719 232.996094 C 186.59375 232.25 186.535156 231.507812 186.460938 230.769531 Z M 146.070312 230.769531 " fill-opacity="1" fill-rule="nonzero"/></g><g clip-path="url(#8cf6c509cc)"><path fill="#000" d="M 159.398438 256.136719 C 161.28125 257 163.207031 257.75 165.152344 258.363281 C 167.097656 257.75 169.019531 257 170.90625 256.136719 Z M 159.398438 256.136719 " fill-opacity="1" fill-rule="nonzero"/></g><path fill="#000" d="M 158.144531 216.675781 C 156.75 217.355469 155.386719 218.097656 154.054688 218.898438 L 176.246094 218.898438 C 174.917969 218.097656 173.550781 217.355469 172.160156 216.675781 Z M 158.144531 216.675781 " fill-opacity="1" fill-rule="nonzero"/><g clip-path="url(#d33a31e9b1)"><path fill="#000" d="M 160.511719 216.082031 L 172.015625 216.082031 C 170.132812 215.21875 168.210938 214.472656 166.265625 213.855469 C 164.320312 214.472656 162.394531 215.21875 160.511719 216.082031 Z M 160.511719 216.082031 " fill-opacity="1" fill-rule="nonzero"/></g><path fill="#000" d="M 146.960938 225.132812 C 146.800781 225.867188 146.660156 226.609375 146.535156 227.355469 L 186 227.355469 C 185.871094 226.609375 185.730469 225.867188 185.570312 225.132812 Z M 146.960938 225.132812 " fill-opacity="1" fill-rule="nonzero"/><path fill="#000" d="M 149.058594 222.3125 C 148.132812 223.023438 147.242188 223.769531 146.378906 224.539062 L 183.925781 224.539062 C 183.0625 223.769531 182.167969 223.023438 181.246094 222.3125 Z M 149.058594 222.3125 " fill-opacity="1" fill-rule="nonzero"/><path fill="#000" d="M 154.210938 219.492188 C 153.097656 220.195312 152.011719 220.9375 150.960938 221.71875 L 181.566406 221.71875 C 180.515625 220.9375 179.433594 220.195312 178.320312 219.492188 Z M 154.210938 219.492188 " fill-opacity="1" fill-rule="nonzero"/><path fill="#000" d="M 192.5625 242.042969 C 192.644531 242.789062 192.746094 243.53125 192.859375 244.269531 L 232.523438 244.269531 C 232.640625 243.53125 232.738281 242.789062 232.820312 242.042969 Z M 192.5625 242.042969 " fill-opacity="1" fill-rule="nonzero"/><g clip-path="url(#9e5e00886c)"><path fill="#000" d="M 191.207031 239.226562 C 191.25 239.96875 191.308594 240.710938 191.382812 241.449219 L 231.773438 241.449219 C 231.847656 240.710938 231.90625 239.96875 231.953125 239.226562 Z M 191.207031 239.226562 " fill-opacity="1" fill-rule="nonzero"/></g><g clip-path="url(#eb3f351b1a)"><path fill="#000" d="M 192.230469 236.40625 C 192.234375 237.148438 192.253906 237.890625 192.289062 238.632812 L 233.09375 238.632812 C 233.128906 237.890625 233.152344 237.148438 233.152344 236.40625 Z M 192.230469 236.40625 " fill-opacity="1" fill-rule="nonzero"/></g><path fill="#000" d="M 219.699219 255.542969 C 221.089844 254.863281 222.457031 254.121094 223.785156 253.320312 L 201.59375 253.320312 C 202.921875 254.121094 204.289062 254.863281 205.679688 255.542969 Z M 219.699219 255.542969 " fill-opacity="1" fill-rule="nonzero"/><path fill="#000" d="M 196.273438 250.5 C 197.324219 251.28125 198.410156 252.023438 199.519531 252.726562 L 223.632812 252.726562 C 224.746094 252.023438 225.828125 251.28125 226.882812 250.5 Z M 196.273438 250.5 " fill-opacity="1" fill-rule="nonzero"/><g clip-path="url(#80fe60c038)"><path fill="#000" d="M 191.175781 233.585938 C 191.140625 234.328125 191.121094 235.070312 191.117188 235.8125 L 232.039062 235.8125 C 232.039062 235.070312 232.019531 234.328125 231.980469 233.585938 Z M 191.175781 233.585938 " fill-opacity="1" fill-rule="nonzero"/></g><g clip-path="url(#568d1740f3)"><path fill="#000" d="M 191.84375 244.863281 C 191.972656 245.609375 192.113281 246.351562 192.273438 247.089844 L 230.882812 247.089844 C 231.042969 246.351562 231.1875 245.609375 231.3125 244.863281 Z M 191.84375 244.863281 " fill-opacity="1" fill-rule="nonzero"/></g><path fill="#000" d="M 193.917969 247.683594 C 194.78125 248.449219 195.671875 249.195312 196.597656 249.90625 L 228.785156 249.90625 C 229.707031 249.195312 230.601562 248.449219 231.464844 247.683594 Z M 193.917969 247.683594 " fill-opacity="1" fill-rule="nonzero"/><g clip-path="url(#e44f6d3ee3)"><path fill="#000" d="M 191.746094 227.949219 C 191.632812 228.6875 191.535156 229.429688 191.449219 230.175781 L 231.707031 230.175781 C 231.625 229.429688 231.527344 228.6875 231.410156 227.949219 Z M 191.746094 227.949219 " fill-opacity="1" fill-rule="nonzero"/></g><g clip-path="url(#ba3ca873ff)"><path fill="#000" d="M 192.496094 230.769531 C 192.421875 231.507812 192.363281 232.25 192.320312 232.996094 L 233.0625 232.996094 C 233.019531 232.25 232.960938 231.507812 232.886719 230.769531 Z M 192.496094 230.769531 " fill-opacity="1" fill-rule="nonzero"/></g><g clip-path="url(#22fe778911)"><path fill="#000" d="M 205.824219 256.136719 C 207.707031 257 209.632812 257.75 211.578125 258.363281 C 213.523438 257.75 215.449219 257 217.332031 256.136719 Z M 205.824219 256.136719 " fill-opacity="1" fill-rule="nonzero"/></g><path fill="#000" d="M 204.570312 216.675781 C 203.175781 217.355469 201.8125 218.097656 200.480469 218.898438 L 222.671875 218.898438 C 221.34375 218.097656 219.976562 217.355469 218.585938 216.675781 Z M 204.570312 216.675781 " fill-opacity="1" fill-rule="nonzero"/><g clip-path="url(#fe330e64d5)"><path fill="#000" d="M 206.9375 216.082031 L 218.441406 216.082031 C 216.558594 215.21875 214.636719 214.472656 212.691406 213.855469 C 210.746094 214.472656 208.820312 215.21875 206.9375 216.082031 Z M 206.9375 216.082031 " fill-opacity="1" fill-rule="nonzero"/></g><path fill="#000" d="M 193.386719 225.132812 C 193.226562 225.867188 193.085938 226.609375 192.960938 227.355469 L 232.425781 227.355469 C 232.296875 226.609375 232.15625 225.867188 231.996094 225.132812 Z M 193.386719 225.132812 " fill-opacity="1" fill-rule="nonzero"/><path fill="#000" d="M 195.484375 222.3125 C 194.558594 223.023438 193.671875 223.769531 192.804688 224.539062 L 230.351562 224.539062 C 229.488281 223.769531 228.59375 223.023438 227.671875 222.3125 Z M 195.484375 222.3125 " fill-opacity="1" fill-rule="nonzero"/><path fill="#000" d="M 200.636719 219.492188 C 199.523438 220.195312 198.4375 220.9375 197.386719 221.71875 L 227.996094 221.71875 C 226.941406 220.9375 225.859375 220.195312 224.746094 219.492188 Z M 200.636719 219.492188 " fill-opacity="1" fill-rule="nonzero"/><path stroke-linecap="butt" transform="matrix(0.481262, -0.575227, 0.575227, 0.481262, 84.697177, 117.339983)" fill="none" stroke-linejoin="miter" d="M 4.199925 10.668869 L 10.592451 10.671727 L 10.593547 43.001768 L 4.201021 42.99891 Z M 4.199925 10.668869 " stroke="#000" stroke-width="3.114183" stroke-opacity="1" stroke-miterlimit="4"/><path stroke-linecap="butt" transform="matrix(0.64382, -0.384703, 0.384703, 0.64382, 110.599898, 91.099981)" fill="none" stroke-linejoin="miter" d="M 10.392098 42.998132 L 4.202064 43.000446 L 4.203167 10.668439 L 11.521342 10.666754 L 24.501997 31.498149 L 25.07618 31.410463 L 25.080477 10.668916 L 31.225856 10.670255 L 31.224753 43.002263 L 24.6801 42.998969 L 10.948356 20.754074 L 10.392929 20.840832 Z M 10.392098 42.998132 " stroke="#000" stroke-width="3.114183" stroke-opacity="1" stroke-miterlimit="4"/><path stroke-linecap="butt" transform="matrix(0.740432, -0.119415, 0.119415, 0.740432, 158.719463, 68.825767)" fill="none" stroke-linejoin="miter" d="M 14.329193 43.46411 C 12.086669 43.46646 10.095265 43.187496 8.348179 42.636673 C 6.601923 42.080708 5.146762 41.355389 3.978383 40.454745 C 2.815145 39.55493 1.923763 38.572344 1.306724 37.491562 L 4.820566 33.204682 L 5.374562 33.204343 C 6.344571 34.648039 7.583613 35.797483 9.075432 36.655329 C 10.573223 37.508863 12.324786 37.933792 14.32929 37.93526 C 16.038385 37.936566 17.331149 37.575291 18.20244 36.850607 C 19.06776 36.130235 19.502651 35.134695 19.506284 33.869129 C 19.503953 33.09851 19.36445 32.458763 19.083465 31.943914 C 18.80248 31.429066 18.341198 30.985378 17.693648 30.617161 C 17.040956 30.248114 16.163349 29.93248 15.061656 29.665116 L 10.904682 28.715081 C 7.999345 28.051317 5.834931 26.947829 4.410611 25.409761 C 2.98712 23.866551 2.27536 21.868359 2.276988 19.4049 C 2.276799 17.574224 2.735899 15.970615 3.650805 14.582959 C 4.565711 13.195304 5.894127 12.122292 7.642855 11.354472 C 9.386441 10.585822 11.47885 10.205794 13.911457 10.202447 C 16.401455 10.203079 18.537828 10.531801 20.310292 11.186954 C 22.087898 11.842937 23.58735 12.849732 24.813788 14.208168 L 21.651253 18.541155 L 21.097257 18.541493 C 20.181161 17.5813 19.136189 16.864103 17.958029 16.383933 C 16.779039 15.908904 15.430868 15.665096 13.911028 15.667935 C 12.154826 15.664307 10.82242 15.976983 9.905182 16.594021 C 8.992257 17.217029 8.537792 18.072245 8.536644 19.158841 C 8.535993 20.176934 8.858781 20.988683 9.499865 21.593261 C 10.140949 22.197839 11.246293 22.671542 12.827011 23.010886 L 17.074382 23.89109 C 20.211767 24.555349 22.488474 25.682222 23.90533 27.266567 C 25.322187 28.850912 26.028309 30.916779 26.028009 33.470137 C 26.029195 35.490897 25.593153 37.245942 24.724193 38.741245 C 23.854405 40.24169 22.543571 41.401947 20.785721 42.226329 C 19.033014 43.051539 16.882551 43.464409 14.329193 43.46411 Z M 14.329193 43.46411 " stroke="#000" stroke-width="3.114183" stroke-opacity="1" stroke-miterlimit="4"/><path stroke-linecap="butt" transform="matrix(0.673694, 0.329601, -0.329601, 0.673694, 236.896467, 73.29288)" fill="none" stroke-linejoin="miter" d="M 15.833472 10.668958 C 21.081431 10.67005 25.090133 12.025418 27.8549 14.737349 C 30.614989 17.45157 32.001052 21.481632 31.999054 26.834403 C 31.999547 32.168561 30.616008 36.202642 27.850929 38.918034 C 25.088138 41.638104 21.081569 43.001077 15.83361 42.999985 L 4.203275 43.001974 L 4.203137 10.670948 Z M 15.460755 37.62767 C 18.789353 37.628481 21.282124 36.774196 22.932001 35.07407 C 24.584268 33.366977 25.409286 30.620845 25.407055 26.835673 C 25.409502 23.048212 24.580722 20.299435 22.929971 18.59641 C 21.279221 16.893385 18.787207 16.042612 15.458609 16.0418 L 10.59496 16.044029 L 10.594817 37.625221 Z M 15.460755 37.62767 " stroke="#000" stroke-width="3.114183" stroke-opacity="1" stroke-miterlimit="4"/><path stroke-linecap="butt" transform="matrix(0.505695, 0.55387, -0.55387, 0.505695, 281.236364, 101.049296)" fill="none" stroke-linejoin="miter" d="M 10.592007 28.801091 L 10.592281 37.645359 L 26.028402 37.64768 L 26.028467 43.000697 L 4.199831 43.001463 L 4.204456 10.669308 L 25.675388 10.666373 L 25.675453 16.019389 L 10.593524 16.023084 L 10.594452 23.584366 L 23.770466 23.582535 L 23.771867 28.802771 Z M 10.592007 28.801091 " stroke="#000" stroke-width="3.114183" stroke-opacity="1" stroke-miterlimit="4"/></svg>